<?xml version="1.0" encoding="UTF-8"?>
<svg id="Layer_2" data-name="Layer 2" xmlns="http://www.w3.org/2000/svg" viewBox="0 0 394.8 113.1">
  <defs>
    <style>
      .cls-1 {
        fill: #fafafa;
      }
    </style>
  </defs>
  <g id="Layer_2-2" data-name="Layer 2">
    <g>
      <path class="cls-1" d="M55.65,0c54.36,3.18,67.99,77.92,18.31,99.83-11.14,4.91-19.19,4.18-30.91,4.35-13.5.19-27.11.37-40.53.24-.75,0-1.66-.45-2.52-.24V0h55.65ZM22.79,11.74h-11.03v80.95h43.53c18.73-1.35,34.44-15.42,37.46-33.96,3.82-23.46-13.24-44.91-36.73-47h-29.15v65.51c.21.34.48.33.83.37,2.05.24,5.84-.25,8.18-.26,12.5-.1,24.95,2.64,34.77-7.17,11.58-11.58,9.26-31.11-4.69-39.62-6.89-4.2-13.97-3.87-21.81-3.73v12.21c5.61.82,10.77-1.04,15.81,2.3,8.16,5.4,7.52,17.74-1.1,22.32-.91.48-3.58,1.48-4.51,1.48h-14.99V22.75c10.71.04,20.53-1.2,29.82,5.08,23.05,15.56,13.29,51.36-14.1,53.61H22.79V11.74Z"/>
      <polygon class="cls-1" points="394.8 67.54 370.1 67.54 370.1 37.12 394.32 37.12 394.32 43.35 378.01 43.35 378.01 48.86 392.88 48.86 392.88 54.84 378.01 54.84 378.01 60.83 394.8 60.83 394.8 67.54"/>
      <path class="cls-1" d="M223.91,37.12c4.19.42,8,2.7,8.05,7.3.04,3.17-1.58,4.75-3.86,6.59,7.13,2.26,6.53,12.68,0,15.45-.89.38-3.56,1.08-4.43,1.08h-17.15v-30.42h17.39ZM214.43,49.1h7.08c1.4,0,2.6-1.86,2.53-3.22-.08-1.51-1.54-2.76-3.01-2.76h-6.24l-.36.36v5.63ZM214.79,54.13l-.36.36v6.47l.36.36h6.96c.14,0,1.42-.4,1.66-.5,2.64-1.19,2.47-5.19-.16-6.26-.19-.08-1.41-.43-1.49-.43h-6.96Z"/>
      <path class="cls-1" d="M114.65,67.54v-30.42h15.47c2.54,0,6.99,2.1,8.77,3.94,5.38,5.57,5.23,18.14-.73,23.24-1.51,1.29-5.63,3.23-7.56,3.23h-15.95ZM122.57,60.83h4.92c.6,0,2.65-.53,3.3-.77,3.9-1.46,4.37-5.96,3.98-9.62s-3.36-6.62-7.05-6.62h-5.16v17Z"/>
      <path class="cls-1" d="M356.78,37.12c1.75.19,4.77,1.36,6.1,2.53,4.1,3.61,2.92,11.5-2.14,13.63,5.73,2.51,3.46,9.46,5.28,14.25h-7.68c-1.23-2.89,0-8.05-2.63-10.18-.21-.17-1.21-.83-1.32-.83h-7.32v11.02h-7.92v-30.42h17.63ZM347.07,50.29h7.8c.08,0,1.15-.49,1.31-.61,1.63-1.17,1.7-4.14.13-5.38-.45-.36-1.89-.96-2.4-.96h-6.84v6.95Z"/>
      <path class="cls-1" d="M193.2,37.12c8.04.77,11.47,8.43,6.36,14.74l-2.41,1.55c6,2,3.49,9.59,5.51,14.13h-7.56c-1.6-2.68-.17-8.05-2.75-10.19-.27-.22-1.32-.83-1.57-.83h-7.08v10.41c.02.2-.23.61-.36.61h-7.56v-30.42h17.39ZM183.49,50.29h8.04c.14,0,1.21-.59,1.4-.75,1.85-1.56,1.45-4.82-.87-5.77-.18-.07-1.41-.43-1.49-.43h-6.84c.08.24-.24.52-.24.6v6.35Z"/>
      <polygon class="cls-1" points="300.78 37.12 300.78 48.14 311.33 48.14 311.33 37.12 319.25 37.12 319.25 67.54 311.33 67.54 311.33 55.08 300.78 55.08 300.78 67.54 292.86 67.54 292.86 37.12 300.78 37.12"/>
      <polygon class="cls-1" points="170.78 37.12 170.78 43.35 154.23 43.35 154.23 48.86 169.34 48.86 169.34 54.84 154.23 54.84 154.23 60.83 171.02 60.83 171.02 67.54 146.31 67.54 146.31 37.12 170.78 37.12"/>
      <path class="cls-1" d="M287.83,46.22h-7.92c.38-4.26-8.5-4.96-8.87-1.29-.13,1.28.92,1.91,1.92,2.37,5.19,2.36,14.92,1.93,15.8,9.61,1.19,10.32-10.51,12.72-18.35,10.66-5.22-1.37-8-4.62-8.24-10.09,2.64-.43,5.23.05,7.89.02.42,4.15,3.91,5,7.56,4.51,3.29-.45,4.68-3.83,1.26-5.53-5.05-2.51-14.87-1.95-15.73-9.68-1.49-13.4,24.8-14.07,24.68-.57Z"/>
      <polygon class="cls-1" points="241.77 37.12 248.01 49.33 253.77 37.12 262.88 37.12 251.85 55.92 251.85 67.18 251.49 67.54 243.93 67.54 243.58 55.79 232.9 37.12 241.77 37.12"/>
      <path class="cls-1" d="M140.32,83.58h-3.72c-.64-1.16-.86-2.23-1.7-3.33-2.83-3.73-8.6-4.02-12.41-1.65-6.73,4.18-6.37,18.99,1.11,22.27,6.43,2.82,12.46-.84,13.11-7.71h3.84c-.75,9.41-8.82,13.83-17.61,11.24-10.15-2.98-11.57-18.24-5.85-25.69,6.22-8.1,21.86-6.26,23.22,4.87Z"/>
      <path class="cls-1" d="M286.63,83.58h-3.84c-1.35-7.56-11.68-8.55-16.06-2.99-4.05,5.13-3.43,16.85,2.9,20.08,6.19,3.17,13.16-.46,13.41-7.52h3.84c-.22,9.67-9.96,14.28-18.46,10.89-10.58-4.22-10.84-22.93-1.36-28.42,7.19-4.16,18.86-1.42,19.59,7.94Z"/>
      <rect class="cls-1" x="325.24" y="37.12" width="7.92" height="30.42"/>
      <path class="cls-1" d="M298.09,82.45c1.29-.16,3.13-.15,4.42,0,11.03,1.31,11.62,21.2-.92,22.42-14.94,1.45-15.27-20.92-3.5-22.42ZM299.77,85.32c-8.61.68-8.34,16.79.89,16.48s8.62-17.23-.89-16.48Z"/>
      <path class="cls-1" d="M152.01,82.45c8.61-1.16,13.51,4.37,12.77,12.75-1.17,13.13-19.87,12.78-20.87.25-.46-5.72,1.66-12.13,8.11-13ZM153.95,85.32c-8.93.46-8.5,16.81.64,16.48,8.98-.33,8.62-16.96-.64-16.48Z"/>
      <path class="cls-1" d="M208.67,104.42h-3.6v-15.69c0-.11-.62-1.43-.76-1.64-1.73-2.64-6.34-2.08-8.36-.05-.47.47-1.67,2.79-1.67,3.36v14.01h-3.6v-21.55c1.11-.2,2.24-.48,3.32.03l.15,3.08c2.15-4.35,10.53-5.08,13.18-1.18.48.71,1.33,3.15,1.33,3.94v15.69Z"/>
      <path class="cls-1" d="M317.81,82.86v15.69c0,.24.77,1.61,1,1.88,1.85,2.14,6.15,1.56,8-.32.53-.54,1.8-2.8,1.8-3.47v-13.77h3.6v21.55h-3.36v-3.35c-1.21,1.3-2.1,2.57-3.84,3.23-2.56.97-6.86.89-8.87-1.2-.78-.81-1.92-3.47-1.92-4.55v-15.69h3.6Z"/>
      <path class="cls-1" d="M171.74,82.86v15.45c0,.89,1.08,2.23,1.84,2.72,2.67,1.7,6.73.47,8.19-2.28.13-.24.76-1.77.76-1.87v-14.01h3.6v21.55h-3.36v-3.35c-.64.41-.93,1.25-1.47,1.77-3.34,3.25-10.91,2.86-12.56-2.02-.17-.51-.61-2.31-.61-2.75v-15.21c1.27-.21,2.33-.37,3.6,0Z"/>
      <path class="cls-1" d="M228.34,109.45c4.15,1.97,5.52-2.19,6.25-5.39l-8.41-21.19c.77-.27,3.55-.48,4.02.06l6.03,17.09.5.34,6.12-17.72h3.48c-2.81,7.43-5.45,14.97-8.45,22.33-1.91,4.69-3.08,9.39-9.53,7.84v-3.35Z"/>
      <path class="cls-1" d="M354.99,104.42h-3.36v-15.21c0-.33-.65-1.85-.9-2.22-1.85-2.71-6.87-1.89-8.69.54-.49.66-1.44,2.84-1.44,3.59v13.29h-3.36v-21.55h3.12s.12,3.11.12,3.11c2.13-3.61,7.72-4.69,11.32-2.92,1.56.77,3.19,3.24,3.19,4.95v16.41Z"/>
      <path class="cls-1" d="M378.01,89.57h-3.48c-1.21-3.53-4.22-4.99-7.81-3.96-4.83,1.39-5.55,9.08-3.55,12.9,2.75,5.24,10.79,4.01,11.23-1.99h3.6c-.85,11.32-17.87,11.11-19.37.06-1.16-8.53,2.89-15.53,12.26-14.16,4.05.59,6.61,3.06,7.1,7.16Z"/>
      <path class="cls-1" d="M218.51,76.16v6.47h4.32v3.35h-4.32v14.25c0,1.19,3.46,1.16,4.32,1.08v3.11h-4.2c-.47,0-2.3-.67-2.68-1.04-.44-.44-1.04-2.34-1.04-2.91v-14.49l-3.37-.1-.22-3.25h3.6v-6.11c.9-.75,2.46-.2,3.6-.36Z"/>
      <rect class="cls-1" x="390.72" y="74.48" width="3.6" height="29.94"/>
      <path class="cls-1" d="M385.45,82.86v21.55h-3.36l-.24-21.19c.23-1.2,2.56,0,3.6-.36Z"/>
      <rect class="cls-1" x="381.85" y="74.48" width="3.6" height="4.31"/>
    </g>
  </g>
</svg>