<?xml version="1.0" encoding="UTF-8"?>
<svg id="Layer_2" data-name="Layer 2" xmlns="http://www.w3.org/2000/svg" viewBox="0 0 227.78 91.56">
  <defs>
    <style>
      .cls-1 {
        fill: #fef7ed;
      }
    </style>
  </defs>
  <g id="Layer_2-2" data-name="Layer 2">
    <g>
      <g>
        <path class="cls-1" d="M.32,88.35v-9.4h1.46l1.32,4.01.46,1.52h.06l.44-1.52,1.33-4.01h1.46v9.4h-1.15v-4.7c0-.31.01-.67.04-1.08.02-.42.05-.83.09-1.23.03-.41.06-.74.08-1.01h-.04l-.53,1.83-1.35,3.7h-.86l-1.32-3.7-.54-1.83h-.03c.03.27.06.6.09,1.01.03.41.05.82.08,1.23.02.42.04.78.04,1.08v4.7H.32Z"/>
        <path class="cls-1" d="M11.86,88.52c-.7,0-1.33-.14-1.9-.43s-1.02-.7-1.35-1.25-.5-1.21-.5-1.98.17-1.4.5-1.95.77-.96,1.31-1.25c.54-.29,1.12-.44,1.74-.44,1,0,1.78.3,2.34.9.56.6.84,1.39.84,2.37,0,.13,0,.26-.01.39,0,.12-.02.23-.04.33h-5.49c.08.78.37,1.38.87,1.78.5.4,1.11.6,1.84.6.42,0,.8-.06,1.14-.18.34-.12.67-.28.98-.48l.43.77c-.34.23-.74.43-1.18.59-.44.16-.95.24-1.51.24ZM11.68,82.14c-.57,0-1.08.18-1.53.55-.45.37-.73.9-.83,1.58h4.44c-.05-.72-.26-1.25-.63-1.6-.37-.35-.86-.53-1.45-.53Z"/>
        <path class="cls-1" d="M19.69,88.52c-.7,0-1.33-.14-1.9-.43s-1.02-.7-1.35-1.25-.5-1.21-.5-1.98.17-1.4.5-1.95.77-.96,1.31-1.25c.54-.29,1.12-.44,1.74-.44,1,0,1.78.3,2.34.9.56.6.84,1.39.84,2.37,0,.13,0,.26-.01.39,0,.12-.02.23-.04.33h-5.49c.08.78.37,1.38.87,1.78.5.4,1.11.6,1.84.6.42,0,.8-.06,1.14-.18.34-.12.67-.28.98-.48l.43.77c-.34.23-.74.43-1.18.59-.44.16-.95.24-1.51.24ZM19.52,82.14c-.57,0-1.08.18-1.53.55-.45.37-.73.9-.83,1.58h4.44c-.05-.72-.26-1.25-.63-1.6-.37-.35-.86-.53-1.45-.53Z"/>
        <path class="cls-1" d="M28.45,88.52c-.68,0-1.21-.12-1.6-.37s-.67-.58-.84-1.01c-.17-.43-.25-.93-.25-1.5v-3.3h-1.96v-.89l2.01-.07.16-2.23h.97v2.23h3.42v.96h-3.42v3.31c0,.62.13,1.09.38,1.42s.71.49,1.38.49c.33,0,.64-.03.9-.09.27-.06.52-.13.77-.23l.26.86c-.32.11-.65.21-1,.29s-.74.12-1.18.12Z"/>
        <path class="cls-1" d="M35.17,88.35v-6h-3.24v-.96h4.41v6.96h-1.17ZM35.62,79.92c-.27,0-.49-.08-.67-.25-.18-.17-.27-.39-.27-.67s.09-.5.27-.67c.18-.17.41-.25.67-.25s.49.08.67.25c.18.17.27.39.27.67s-.09.5-.27.67c-.18.17-.41.25-.67.25Z"/>
        <path class="cls-1" d="M39.81,88.35v-6.96h.97l.1,1.19h.06c.36-.39.75-.72,1.17-.97s.9-.39,1.45-.39c.82,0,1.43.24,1.82.72s.59,1.17.59,2.09v4.33h-1.17v-4.17c0-.66-.12-1.15-.37-1.47-.25-.32-.66-.48-1.23-.48-.41,0-.78.1-1.1.31-.33.21-.69.53-1.1.95v4.86h-1.17Z"/>
        <path class="cls-1" d="M50.55,91.56c-1.01,0-1.8-.17-2.36-.51-.56-.34-.85-.81-.85-1.43s.38-1.11,1.15-1.55v-.06c-.18-.1-.35-.25-.49-.43-.15-.18-.22-.42-.22-.72,0-.22.07-.45.21-.68.14-.23.35-.44.62-.62v-.06c-.24-.18-.44-.42-.61-.73-.17-.31-.25-.66-.25-1.07,0-.51.13-.95.38-1.32.25-.37.59-.66,1-.87.42-.21.87-.31,1.35-.31.39,0,.74.06,1.03.17h2.88v.96h-1.8c.16.16.3.37.42.62.11.25.17.51.17.79,0,.5-.12.92-.36,1.28-.24.36-.56.63-.97.82s-.86.29-1.37.29c-.18,0-.38-.02-.58-.06-.21-.04-.4-.11-.59-.19-.17.11-.31.22-.4.36s-.14.28-.14.44c0,.27.13.47.38.6s.61.2,1.07.2h1.56c.9,0,1.56.12,2,.37.43.25.65.67.65,1.26,0,.43-.16.83-.47,1.2s-.76.67-1.34.9c-.58.22-1.26.34-2.06.34ZM50.64,90.7c.81,0,1.45-.14,1.92-.43.47-.29.7-.61.7-.96,0-.33-.13-.56-.39-.67-.26-.11-.66-.17-1.2-.17h-1.36c-.2,0-.39,0-.57-.03s-.34-.05-.49-.09c-.32.18-.55.37-.69.57s-.2.39-.2.59c0,.36.19.65.58.87s.95.32,1.7.32ZM50.48,85.35c.45,0,.83-.15,1.14-.45s.47-.7.47-1.2-.16-.88-.47-1.18-.69-.45-1.14-.45-.82.15-1.13.45-.47.69-.47,1.18.16.9.47,1.2.69.45,1.13.45Z"/>
        <path class="cls-1" d="M63.16,88.35v-9.4h1.32l3.01,5.9.9,1.95h.03c-.02-.47-.05-.96-.09-1.47s-.06-1.01-.06-1.51v-4.87h1.15v9.4h-1.32l-3.01-5.9-.9-1.95h-.03c.02.48.05.96.09,1.46.04.5.06.99.06,1.48v4.91h-1.15Z"/>
        <path class="cls-1" d="M74.12,88.52c-.61,0-1.18-.14-1.7-.43-.52-.29-.94-.7-1.26-1.25-.32-.54-.48-1.2-.48-1.96s.16-1.45.48-1.99c.32-.54.74-.96,1.26-1.25.52-.29,1.09-.43,1.7-.43s1.18.14,1.7.43.94.7,1.26,1.25c.32.54.48,1.21.48,1.99s-.16,1.42-.48,1.96c-.32.54-.74.96-1.26,1.25s-1.09.43-1.7.43ZM74.12,87.55c.67,0,1.21-.25,1.61-.74.41-.49.61-1.13.61-1.93s-.2-1.45-.61-1.95c-.41-.5-.94-.74-1.61-.74s-1.21.25-1.61.74c-.41.5-.61,1.15-.61,1.95s.2,1.44.61,1.93c.41.49.94.74,1.61.74Z"/>
        <path class="cls-1" d="M83.3,88.52c-.68,0-1.21-.12-1.6-.37s-.67-.58-.84-1.01c-.17-.43-.25-.93-.25-1.5v-3.3h-1.96v-.89l2.01-.07.16-2.23h.97v2.23h3.42v.96h-3.42v3.31c0,.62.13,1.09.38,1.42s.71.49,1.38.49c.33,0,.64-.03.9-.09.27-.06.52-.13.77-.23l.26.86c-.32.11-.65.21-1,.29s-.74.12-1.18.12Z"/>
        <path class="cls-1" d="M90.22,88.52c-.7,0-1.33-.14-1.9-.43s-1.02-.7-1.35-1.25-.5-1.21-.5-1.98.17-1.4.5-1.95.77-.96,1.31-1.25c.54-.29,1.12-.44,1.74-.44,1,0,1.78.3,2.34.9.56.6.84,1.39.84,2.37,0,.13,0,.26-.01.39,0,.12-.02.23-.04.33h-5.49c.08.78.37,1.38.87,1.78.5.4,1.11.6,1.84.6.42,0,.8-.06,1.14-.18.34-.12.67-.28.98-.48l.43.77c-.34.23-.74.43-1.18.59-.44.16-.95.24-1.51.24ZM90.05,82.14c-.57,0-1.08.18-1.53.55-.45.37-.73.9-.83,1.58h4.44c-.05-.72-.26-1.25-.63-1.6-.37-.35-.86-.53-1.45-.53Z"/>
        <path class="cls-1" d="M97.77,88.52c-.68,0-1.31-.11-1.91-.32-.59-.21-1.1-.47-1.52-.77l.54-.77c.4.29.85.52,1.33.69.49.17,1.05.26,1.69.26.59,0,1.03-.11,1.33-.32.29-.21.44-.47.44-.77,0-.18-.05-.34-.15-.49-.1-.14-.31-.28-.62-.42s-.78-.26-1.41-.39c-.9-.19-1.58-.45-2.03-.77-.46-.32-.69-.74-.69-1.27,0-.56.24-1.03.73-1.41.49-.38,1.21-.57,2.16-.57.54,0,1.05.09,1.55.26.5.18.92.38,1.26.62l-.57.76c-.33-.22-.68-.4-1.08-.53s-.81-.2-1.26-.2c-.59,0-1.01.1-1.25.3-.24.2-.36.44-.36.7,0,.3.16.53.48.69.32.16.83.32,1.54.47.77.16,1.37.34,1.78.54.42.2.7.43.86.69.16.26.24.56.24.92,0,.37-.12.72-.36,1.03-.24.32-.59.57-1.05.76-.46.19-1.02.29-1.69.29Z"/>
        <path class="cls-1" d="M110.43,88.35v-9.4h2.92c.64,0,1.21.08,1.7.25.49.17.88.44,1.16.83.28.39.42.9.42,1.55,0,.73-.19,1.31-.57,1.76-.38.44-.89.75-1.53.91l2.39,4.1h-1.36l-2.26-3.97h-1.68v3.97h-1.19ZM111.62,83.41h1.56c.74,0,1.3-.15,1.68-.45.39-.3.58-.76.58-1.37s-.19-1.06-.58-1.3c-.39-.25-.95-.37-1.68-.37h-1.56v3.5Z"/>
        <path class="cls-1" d="M121.57,88.52c-.7,0-1.33-.14-1.9-.43s-1.02-.7-1.35-1.25-.5-1.21-.5-1.98.17-1.4.5-1.95.77-.96,1.31-1.25c.54-.29,1.12-.44,1.74-.44,1,0,1.78.3,2.34.9.56.6.84,1.39.84,2.37,0,.13,0,.26-.01.39,0,.12-.02.23-.04.33h-5.49c.08.78.37,1.38.87,1.78.5.4,1.11.6,1.84.6.42,0,.8-.06,1.14-.18.34-.12.67-.28.98-.48l.43.77c-.34.23-.74.43-1.18.59-.44.16-.95.24-1.51.24ZM121.39,82.14c-.57,0-1.08.18-1.53.55-.45.37-.73.9-.83,1.58h4.44c-.05-.72-.26-1.25-.63-1.6-.37-.35-.86-.53-1.45-.53Z"/>
        <path class="cls-1" d="M125.89,84.06v-.89h6.16v.89h-6.16Z"/>
        <path class="cls-1" d="M133.87,88.35v-1.02h2.33v-7.38h-2.33v-1h5.87v1h-2.33v7.38h2.33v1.02h-5.87Z"/>
        <path class="cls-1" d="M141.18,88.35v-6.96h.95l.1.92h.03c.18-.32.39-.59.63-.79.24-.2.56-.3.96-.3.68,0,1.12.4,1.32,1.2.2-.37.42-.67.67-.88.24-.21.57-.32.97-.32.49,0,.87.18,1.14.55s.41.9.41,1.6v4.99h-1.17v-4.9c0-.81-.25-1.22-.75-1.22-.24,0-.44.09-.59.27-.16.18-.33.45-.52.81v5.04h-1.09v-4.9c0-.4-.05-.7-.17-.91-.11-.21-.29-.31-.55-.31-.24,0-.45.09-.62.27s-.35.45-.52.81v5.04h-1.17Z"/>
        <path class="cls-1" d="M151.71,88.52c-.43,0-.82-.08-1.18-.24-.36-.16-.65-.38-.86-.68-.21-.3-.32-.65-.32-1.06,0-.52.17-.96.51-1.31.34-.35.88-.63,1.63-.84.75-.21,1.71-.36,2.91-.46,0-.31-.07-.6-.19-.87s-.31-.48-.58-.64c-.27-.16-.63-.24-1.07-.24s-.89.09-1.31.26c-.42.18-.8.37-1.12.57l-.46-.8c.35-.23.8-.45,1.35-.67.55-.22,1.13-.33,1.74-.33.96,0,1.66.26,2.13.78.46.52.69,1.22.69,2.08v4.27h-.96l-.1-.95h-.04c-.38.3-.81.56-1.29.78-.48.22-.96.34-1.46.34ZM152.02,87.57c.39,0,.79-.09,1.18-.27.4-.18.79-.43,1.18-.76v-1.83c-.99.08-1.77.19-2.34.35-.57.16-.97.35-1.2.59-.23.23-.35.5-.35.81,0,.39.16.68.47.85.31.18.67.27,1.07.27Z"/>
        <path class="cls-1" d="M160.26,91.56c-1.01,0-1.8-.17-2.36-.51-.56-.34-.85-.81-.85-1.43s.38-1.11,1.15-1.55v-.06c-.18-.1-.35-.25-.49-.43-.15-.18-.22-.42-.22-.72,0-.22.07-.45.21-.68.14-.23.35-.44.62-.62v-.06c-.24-.18-.44-.42-.61-.73-.17-.31-.25-.66-.25-1.07,0-.51.13-.95.38-1.32.25-.37.59-.66,1-.87.42-.21.87-.31,1.35-.31.39,0,.74.06,1.03.17h2.88v.96h-1.8c.16.16.3.37.42.62.11.25.17.51.17.79,0,.5-.12.92-.36,1.28-.24.36-.56.63-.97.82s-.86.29-1.37.29c-.18,0-.38-.02-.58-.06-.21-.04-.4-.11-.59-.19-.17.11-.31.22-.4.36s-.14.28-.14.44c0,.27.13.47.38.6s.61.2,1.07.2h1.56c.9,0,1.56.12,2,.37.43.25.65.67.65,1.26,0,.43-.16.83-.47,1.2s-.76.67-1.34.9c-.58.22-1.26.34-2.06.34ZM160.35,90.7c.81,0,1.45-.14,1.92-.43.47-.29.7-.61.7-.96,0-.33-.13-.56-.39-.67-.26-.11-.66-.17-1.2-.17h-1.36c-.2,0-.39,0-.57-.03s-.34-.05-.49-.09c-.32.18-.55.37-.69.57s-.2.39-.2.59c0,.36.19.65.58.87s.95.32,1.7.32ZM160.19,85.35c.45,0,.83-.15,1.14-.45s.47-.7.47-1.2-.16-.88-.47-1.18-.69-.45-1.14-.45-.82.15-1.13.45-.47.69-.47,1.18.16.9.47,1.2.69.45,1.13.45Z"/>
        <path class="cls-1" d="M168.38,88.35v-6h-3.24v-.96h4.41v6.96h-1.17ZM168.84,79.92c-.27,0-.49-.08-.67-.25-.18-.17-.27-.39-.27-.67s.09-.5.27-.67c.18-.17.41-.25.67-.25s.49.08.67.25c.18.17.27.39.27.67s-.09.5-.27.67c-.18.17-.41.25-.67.25Z"/>
        <path class="cls-1" d="M173.02,88.35v-6.96h.97l.1,1.19h.06c.36-.39.75-.72,1.17-.97s.9-.39,1.45-.39c.82,0,1.43.24,1.82.72s.59,1.17.59,2.09v4.33h-1.17v-4.17c0-.66-.12-1.15-.37-1.47-.25-.32-.66-.48-1.23-.48-.41,0-.78.1-1.1.31-.33.21-.69.53-1.1.95v4.86h-1.17Z"/>
        <path class="cls-1" d="M184.26,88.52c-.7,0-1.33-.14-1.9-.43s-1.02-.7-1.35-1.25-.5-1.21-.5-1.98.17-1.4.5-1.95.77-.96,1.31-1.25c.54-.29,1.12-.44,1.74-.44,1,0,1.78.3,2.34.9.56.6.84,1.39.84,2.37,0,.13,0,.26-.01.39,0,.12-.02.23-.04.33h-5.49c.08.78.37,1.38.87,1.78.5.4,1.11.6,1.84.6.42,0,.8-.06,1.14-.18.34-.12.67-.28.98-.48l.43.77c-.34.23-.74.43-1.18.59-.44.16-.95.24-1.51.24ZM184.08,82.14c-.57,0-1.08.18-1.53.55-.45.37-.73.9-.83,1.58h4.44c-.05-.72-.26-1.25-.63-1.6-.37-.35-.86-.53-1.45-.53Z"/>
        <path class="cls-1" d="M191.25,88.52c-.91,0-1.64-.32-2.19-.95s-.83-1.53-.83-2.69c0-.75.15-1.41.45-1.96s.69-.97,1.17-1.27c.48-.3,1-.44,1.54-.44.42,0,.8.08,1.13.24.33.16.65.38.95.67h.04l-.06-1.29v-2.68h1.17v10.2h-.97l-.1-.92h-.04c-.29.3-.63.55-1.02.77-.4.21-.81.32-1.24.32ZM191.49,87.53c.69,0,1.34-.35,1.96-1.05v-3.47c-.32-.3-.62-.51-.92-.63-.3-.12-.6-.19-.91-.19-.4,0-.77.11-1.1.34-.33.22-.59.53-.79.93-.2.4-.29.86-.29,1.4,0,.83.18,1.48.54,1.96.36.47.86.71,1.5.71Z"/>
      </g>
      <g>
        <g>
          <path class="cls-1" d="M73.08,61.25V27.84h10.76c2.31,0,4.37.31,6.17.92,1.8.61,3.22,1.62,4.26,3.01,1.04,1.39,1.56,3.3,1.56,5.71,0,2.58-.65,4.66-1.94,6.22-1.29,1.56-2.99,2.67-5.1,3.32l8.21,14.23h-5.76l-7.6-13.57h-5.46v13.57h-5.1ZM78.18,43.55h5.05c2.45,0,4.32-.5,5.61-1.5,1.29-1,1.94-2.52,1.94-4.56s-.65-3.48-1.94-4.31c-1.29-.83-3.16-1.25-5.61-1.25h-5.05v11.63Z"/>
          <path class="cls-1" d="M113.12,61.86c-2.52,0-4.79-.52-6.83-1.56-2.04-1.04-3.66-2.53-4.87-4.49-1.21-1.96-1.81-4.31-1.81-7.06s.6-5.05,1.81-6.99c1.21-1.94,2.78-3.43,4.72-4.49,1.94-1.05,4.01-1.58,6.22-1.58,2.45,0,4.52.5,6.22,1.5,1.7,1,3,2.39,3.9,4.16.9,1.77,1.35,3.81,1.35,6.12,0,.54-.02,1.05-.05,1.53-.03.48-.08.88-.15,1.22h-18.97c.27,2.58,1.25,4.51,2.93,5.76,1.68,1.26,3.75,1.89,6.2,1.89,1.39,0,2.67-.2,3.83-.59,1.16-.39,2.29-.93,3.42-1.61l1.79,3.21c-1.26.85-2.71,1.56-4.36,2.12s-3.43.84-5.33.84ZM112.5,39.67c-1.87,0-3.54.59-5,1.76-1.46,1.17-2.38,2.86-2.75,5.08h14.54c-.17-2.28-.86-3.99-2.07-5.13-1.21-1.14-2.78-1.71-4.72-1.71Z"/>
          <path class="cls-1" d="M141.78,61.86c-2.58,0-4.91-.51-6.99-1.53-2.07-1.02-3.72-2.51-4.92-4.46-1.21-1.96-1.81-4.31-1.81-7.06s.65-5.15,1.94-7.09c1.29-1.94,3-3.43,5.13-4.46,2.12-1.04,4.45-1.56,6.96-1.56,2.04,0,3.83.35,5.36,1.05,1.53.7,2.81,1.54,3.83,2.52l-2.45,3.21c-.99-.82-2.01-1.45-3.06-1.91-1.05-.46-2.19-.69-3.42-.69-2.69,0-4.87.82-6.55,2.45-1.68,1.63-2.53,3.79-2.53,6.48s.82,4.85,2.47,6.48,3.8,2.45,6.45,2.45c1.5,0,2.86-.29,4.08-.87,1.22-.58,2.33-1.27,3.32-2.09l2.19,3.26c-1.39,1.22-2.96,2.17-4.69,2.83s-3.5.99-5.3.99Z"/>
          <path class="cls-1" d="M164.38,61.86c-2.38,0-4.38-.65-5.99-1.96-1.62-1.31-2.42-3.05-2.42-5.23,0-2.82,1.37-4.96,4.11-6.4,2.74-1.44,7.23-2.41,13.49-2.88-.07-1.53-.57-2.84-1.5-3.93-.94-1.09-2.51-1.63-4.72-1.63-1.53,0-3.02.29-4.46.87-1.45.58-2.78,1.22-4,1.94l-1.89-3.42c1.39-.85,3.07-1.65,5.02-2.4,1.96-.75,4.02-1.12,6.2-1.12,3.43,0,6.03.94,7.78,2.81,1.75,1.87,2.63,4.46,2.63,7.75v15h-4.13l-.41-3.21h-.15c-1.33,1.02-2.82,1.91-4.49,2.68-1.67.77-3.35,1.15-5.05,1.15ZM165.81,57.83c1.33,0,2.63-.29,3.93-.87,1.29-.58,2.57-1.39,3.83-2.45v-5.92c-3.26.24-5.81.62-7.65,1.15-1.84.53-3.14,1.17-3.9,1.91-.77.75-1.15,1.63-1.15,2.65,0,1.26.48,2.16,1.45,2.7.97.54,2.13.82,3.49.82Z"/>
          <path class="cls-1" d="M184.47,71.45v-35.14h4.13l.41,3.06h.15c1.12-1.09,2.42-1.97,3.9-2.65,1.48-.68,2.95-1.02,4.41-1.02,3.3,0,5.83,1.16,7.6,3.47,1.77,2.31,2.65,5.39,2.65,9.23,0,2.82-.53,5.25-1.58,7.27-1.05,2.02-2.43,3.56-4.13,4.62-1.7,1.05-3.54,1.58-5.51,1.58-1.16,0-2.36-.27-3.62-.82s-2.41-1.29-3.47-2.24h-.15l.25,4.49v8.16h-5.05ZM195.54,57.68c2.01,0,3.67-.8,5-2.4,1.33-1.6,1.99-3.88,1.99-6.83,0-2.62-.51-4.69-1.53-6.22-1.02-1.53-2.65-2.3-4.9-2.3-1.02,0-2.09.26-3.21.79-1.12.53-2.24,1.39-3.37,2.58v11.78c1.05.95,2.12,1.62,3.21,2.01,1.09.39,2.02.59,2.8.59Z"/>
          <path class="cls-1" d="M223.19,61.86c-1.29,0-2.38-.44-3.26-1.33-.88-.88-1.33-2.02-1.33-3.42s.44-2.53,1.33-3.42c.88-.88,1.97-1.33,3.26-1.33s2.38.44,3.26,1.33c.88.88,1.33,2.02,1.33,3.42s-.44,2.53-1.33,3.42c-.88.88-1.97,1.33-3.26,1.33Z"/>
        </g>
        <path class="cls-1" d="M17.56,49.61l-2.76-9.51c-.15-.52-.88-.52-1.04,0l-2.77,9.51c-.09.34.16.68.52.68h5.54c.35,0,.62-.34.51-.68ZM19.43,56.06c-.07-.23-.28-.39-.52-.39h-9.27c-.24,0-.45.16-.51.38l-1.51,5.2h13.32l-1.51-5.19ZM17.56,49.61l-2.76-9.51c-.15-.52-.88-.52-1.04,0l-2.77,9.51c-.09.34.16.68.52.68h5.54c.35,0,.62-.34.51-.68ZM59.42,59.74l-17.31-19.14.03-.08c6.89-.2,15.5-9.89,15.5-18.53,0-13.39-7.54-21.99-20.93-21.99H8.27C3.7,0,0,3.7,0,8.27v52.17c0,.45.36.81.81.81h.44l7.71-24.59c.62-1.97,2.44-3.31,4.51-3.31h1.87c2.07,0,3.89,1.35,4.51,3.31l6.54,20.85v-17.09c0-.3.25-.55.55-.55h4.69c.3,0,.55.25.55.55v20.83h26.69c.8,0,1.16-.99.55-1.51ZM32.35,36.87c0,.3-.25.55-.55.55h-5.03c-.3,0-.55-.25-.55-.55v-4.19c0-.3.25-.55.55-.55h5.03c.3,0,.55.25.55.55v4.19ZM17.56,49.61l-2.76-9.51c-.15-.52-.88-.52-1.04,0l-2.77,9.51c-.09.34.16.68.52.68h5.54c.35,0,.62-.34.51-.68Z"/>
      </g>
      <rect class="cls-1" x="72.13" y="66.03" width="49.87" height="1.9"/>
      <rect class="cls-1" x="109.85" y="90.37" width="13.53" height=".96"/>
    </g>
  </g>
</svg>