<?xml version="1.0" encoding="UTF-8"?>
<svg id="Layer_2" data-name="Layer 2" xmlns="http://www.w3.org/2000/svg" viewBox="0 0 62.9 64.51">
  <defs>
    <style>
      .cls-1 {
        fill: #fff;
      }
    </style>
  </defs>
  <g id="Layer_2-2" data-name="Layer 2">
    <path class="cls-1" d="M18.49,52.25l-2.91-10.02c-.16-.55-.93-.55-1.09,0l-2.92,10.02c-.1.36.17.72.55.72h5.83c.37,0,.65-.36.54-.72ZM20.46,59.04c-.07-.24-.29-.41-.55-.41h-9.76c-.25,0-.47.16-.54.4l-1.59,5.48h14.03l-1.59-5.47ZM18.49,52.25l-2.91-10.02c-.16-.55-.93-.55-1.09,0l-2.92,10.02c-.1.36.17.72.55.72h5.83c.37,0,.65-.36.54-.72ZM62.58,62.92l-18.23-20.16.03-.08c7.26-.21,16.33-10.42,16.33-19.52,0-14.1-7.94-23.16-22.04-23.16H8.71C3.9,0,0,3.9,0,8.71v54.95c0,.47.38.85.85.85h.46l8.12-25.9c.65-2.07,2.57-3.49,4.75-3.49h1.97c2.18,0,4.1,1.42,4.75,3.49l6.89,21.96v-18c0-.32.26-.58.58-.58h4.94c.32,0,.58.26.58.58v21.94h28.11c.84,0,1.22-1.04.58-1.59ZM34.07,38.83c0,.32-.26.58-.58.58h-5.3c-.32,0-.58-.26-.58-.58v-4.41c0-.32.26-.58.58-.58h5.3c.32,0,.58.26.58.58v4.41ZM18.49,52.25l-2.91-10.02c-.16-.55-.93-.55-1.09,0l-2.92,10.02c-.1.36.17.72.55.72h5.83c.37,0,.65-.36.54-.72Z"/>
  </g>
</svg>