<?xml version="1.0" encoding="UTF-8"?>
<svg id="Layer_2" data-name="Layer 2" xmlns="http://www.w3.org/2000/svg" viewBox="0 0 60.08 61.61">
  <defs>
    <style>
      .cls-1 {
        fill: #18132c;
      }
    </style>
  </defs>
  <g id="Layer_2-2" data-name="Layer 2">
    <path class="cls-1" d="M17.66,49.9l-2.78-9.57c-.15-.52-.89-.52-1.04,0l-2.79,9.57c-.1.34.16.69.53.69h5.57c.35,0,.62-.34.52-.69ZM19.54,56.39c-.07-.23-.28-.39-.52-.39h-9.33c-.24,0-.45.16-.51.39l-1.52,5.23h13.4l-1.52-5.22ZM17.66,49.9l-2.78-9.57c-.15-.52-.89-.52-1.04,0l-2.79,9.57c-.1.34.16.69.53.69h5.57c.35,0,.62-.34.52-.69ZM59.77,60.09l-17.41-19.25.03-.08c6.93-.2,15.59-9.95,15.59-18.64,0-13.47-7.58-22.12-21.05-22.12H8.32C3.73,0,0,3.73,0,8.32v52.48c0,.45.36.81.81.81h.44l7.76-24.74c.62-1.98,2.45-3.33,4.54-3.33h1.88c2.08,0,3.92,1.36,4.54,3.33l6.58,20.97v-17.19c0-.31.25-.55.55-.55h4.72c.31,0,.55.25.55.55v20.95h26.85c.8,0,1.17-.99.55-1.52ZM32.54,37.09c0,.31-.25.55-.55.55h-5.06c-.31,0-.55-.25-.55-.55v-4.21c0-.31.25-.55.55-.55h5.06c.31,0,.55.25.55.55v4.21ZM17.66,49.9l-2.78-9.57c-.15-.52-.89-.52-1.04,0l-2.79,9.57c-.1.34.16.69.53.69h5.57c.35,0,.62-.34.52-.69Z"/>
  </g>
</svg>